# xmcd
#
# Track frame offsets: 
#        150
#        9828
#        22711
#        34277
#        55199
#        66157
#        81229
#        101111
#        109332
#        117769
#        129942
#        141602
#        158987
#        167851
#        178472
#        191671
#        199774
#        213598
#        231261
#        248168
#
# Disc length: 3402 seconds
#
# Revision: 3
# Processed by: cddbd v1.5.2PL0 Copyright (c) Steve Scherf et al.
# Submitted via: ExactAudioCopy v1.1
#
DISCID=220d4814
DTITLE=Johnny Cash - Last Man Standing (American Outttakes)
DYEAR=2003
DGENRE=Country
TTITLE0=What On Earth
TTITLE1=The Drifter
TTITLE2=I Witnessed A Crime (with Billy Gibbons)
TTITLE3=Banks Of The Ohio
TTITLE4=The Next Time Im In Town
TTITLE5=Breaking Bread
TTITLE6=To Beat The Devil
TTITLE7=Friends In California
TTITLE8=The Caretaker
TTITLE9=The Wonder Of You
TTITLE10=East Virginia Blues
TTITLE11=Bury Me Not (Take 2)
TTITLE12=Old Chunk Of Coal
TTITLE13=Go On Blues
TTITLE14=If I Give My Soul
TTITLE15=Youre My Baby
TTITLE16=Wichita Lineman
TTITLE17=Big Iron
TTITLE18=Big River
TTITLE19=Always Alone
EXTD=Red Devil RD018-1
EXTT0=
EXTT1=
EXTT2=
EXTT3=
EXTT4=
EXTT5=
EXTT6=
EXTT7=
EXTT8=
EXTT9=
EXTT10=
EXTT11=
EXTT12=
EXTT13=
EXTT14=
EXTT15=
EXTT16=
EXTT17=
EXTT18=
EXTT19=
PLAYORDER=
